<svg width="512" height="512" viewBox="0 0 512 512" fill="none" xmlns="http://www.w3.org/2000/svg">
  <rect x="86" y="110" width="340" height="292" rx="48" fill="#1F2937" stroke="#CBD5E1" stroke-width="16"/>
  <path d="M86 174H426" stroke="#94A3B8" stroke-width="16"/>
  <rect x="118" y="138" width="56" height="14" rx="7" fill="#14B8A6"/>
  <rect x="194" y="138" width="56" height="14" rx="7" fill="#64748B"/>
  <rect x="270" y="138" width="56" height="14" rx="7" fill="#64748B"/>
  <rect x="126" y="210" width="116" height="92" rx="22" fill="#0F766E"/>
  <path d="M126 236L184 200L242 236" fill="#14B8A6"/>
  <path d="M126 236L184 200L242 236" stroke="#99F6E4" stroke-width="12" stroke-linejoin="round"/>
  <path d="M184 200V270" stroke="#99F6E4" stroke-width="12" stroke-linecap="round"/>
  <rect x="270" y="214" width="116" height="20" rx="10" fill="#E5E7EB"/>
  <rect x="270" y="252" width="86" height="18" rx="9" fill="#9CA3AF"/>
  <rect x="270" y="288" width="104" height="18" rx="9" fill="#6B7280"/>
  <rect x="126" y="326" width="260" height="24" rx="12" fill="#64748B"/>
</svg>
